<svg width="462" height="305" viewBox="0 0 462 305" fill="none" xmlns="http://www.w3.org/2000/svg">
<g filter="url(#filter0_ii_3_24)">
<path d="M105.764 67.9524C141.944 -33.0479 260.119 -3.92582 281.786 43.0598C282.26 44.0869 283.463 44.5604 284.507 44.1262C326.265 26.7594 372.598 42.82 387.31 95.2863C387.487 95.9177 387.983 96.4473 388.599 96.6721C506.889 139.846 469.738 304.957 365.497 304.957H79.6144C14.4331 307.33 -38.4127 210.088 37.0685 149.456C37.6096 149.022 37.9088 148.302 37.8351 147.612C31.1988 85.47 77.8706 68.0972 103.707 69.3498C104.617 69.3938 105.456 68.8103 105.764 67.9524Z" fill="url(#paint0_linear_3_24)"/>
</g>
<defs>
<filter id="filter0_ii_3_24" x="9.15527e-05" y="-10.7999" width="462" height="332" filterUnits="userSpaceOnUse" color-interpolation-filters="sRGB">
<feFlood flood-opacity="0" result="BackgroundImageFix"/>
<feBlend mode="normal" in="SourceGraphic" in2="BackgroundImageFix" result="shape"/>
<feColorMatrix in="SourceAlpha" type="matrix" values="0 0 0 0 0 0 0 0 0 0 0 0 0 0 0 0 0 0 127 0" result="hardAlpha"/>
<feOffset dy="16.2"/>
<feGaussianBlur stdDeviation="8.1"/>
<feComposite in2="hardAlpha" operator="arithmetic" k2="-1" k3="1"/>
<feColorMatrix type="matrix" values="0 0 0 0 1 0 0 0 0 1 0 0 0 0 1 0 0 0 0.3 0"/>
<feBlend mode="normal" in2="shape" result="effect1_innerShadow_3_24"/>
<feColorMatrix in="SourceAlpha" type="matrix" values="0 0 0 0 0 0 0 0 0 0 0 0 0 0 0 0 0 0 127 0" result="hardAlpha"/>
<feOffset dy="-10.8"/>
<feGaussianBlur stdDeviation="8.1"/>
<feComposite in2="hardAlpha" operator="arithmetic" k2="-1" k3="1"/>
<feColorMatrix type="matrix" values="0 0 0 0 0 0 0 0 0 0 0 0 0 0 0 0 0 0 0.25 0"/>
<feBlend mode="normal" in2="effect1_innerShadow_3_24" result="effect2_innerShadow_3_24"/>
</filter>
<linearGradient id="paint0_linear_3_24" x1="283.077" y1="-22.9998" x2="282.933" y2="425.092" gradientUnits="userSpaceOnUse">
<stop stop-color="#2B7FFF"/>
<stop offset="1" stop-color="#0900FF"/>
</linearGradient>
</defs>
</svg>
