<svg width="462" height="310" viewBox="0 0 462 310" fill="none" xmlns="http://www.w3.org/2000/svg">
<path d="M199 0C233.265 3.1559e-05 263.504 17.1479 281.524 43.2889C282.081 44.0977 283.136 44.3989 284.039 44.0123C293.075 40.1438 303.035 38 313.5 38C349.516 38 379.561 63.3851 386.493 97.1246C386.64 97.8415 387.158 98.4313 387.852 98.6643C430.959 113.135 462 153.709 462 201.5C462 261.423 413.199 310 353 310H88.5C39.6229 310 9.95335e-05 270.601 0 222C0 192.571 14.5282 166.515 36.8421 150.539C37.5228 150.051 37.84 149.199 37.6496 148.383C36.5707 143.764 36 138.948 36 134C36 99.2061 64.2061 71 99 71C99.8477 71 100.692 71.0168 101.531 71.05C102.463 71.0868 103.31 70.4967 103.591 69.6078C116.346 29.2612 154.239 0 199 0ZM354.812 112.441C338.958 112.441 324.62 116.321 311.802 124.08C298.983 131.839 288.864 142.381 281.442 155.705C274.021 169.03 270.31 183.872 270.31 200.232C270.31 216.593 274.021 231.52 281.442 245.014C289.032 258.507 299.32 269.133 312.308 276.892C325.464 284.65 340.054 288.53 356.077 288.53C368.39 288.53 379.859 286.169 390.485 281.446C400.529 276.982 409.292 270.785 416.774 262.855C417.505 262.081 417.472 260.869 416.719 260.116L413.757 257.154C412.938 256.335 411.599 256.382 410.812 257.232C404.174 264.396 396.218 270.021 386.943 274.108C377.161 278.494 366.619 280.686 355.318 280.687C340.982 280.687 327.994 277.144 316.356 270.061C304.718 262.977 295.526 253.363 288.779 241.219C282.201 228.906 278.912 215.244 278.912 200.232C278.912 185.39 282.201 171.897 288.779 159.753C295.526 147.44 304.633 137.826 316.103 130.911C327.741 123.827 340.645 120.285 354.812 120.285C365.944 120.285 376.317 122.478 385.931 126.863C395.047 130.95 402.919 136.502 409.546 143.518C410.335 144.354 411.662 144.394 412.475 143.581L415.44 140.616C416.199 139.858 416.226 138.635 415.482 137.863C407.996 130.097 399.158 123.984 388.967 119.525C378.341 114.803 366.956 112.441 354.812 112.441ZM143.288 114.972C142.184 114.972 141.288 115.867 141.288 116.972V284C141.288 285.105 142.184 286 143.288 286H147.384C148.488 286 149.384 285.105 149.384 284V206.787C149.384 205.683 150.279 204.787 151.384 204.787H240.235C241.34 204.787 242.235 203.892 242.235 202.787V199.45C242.235 198.346 241.34 197.45 240.235 197.45H151.384C150.279 197.45 149.384 196.555 149.384 195.45V124.309C149.384 123.204 150.279 122.309 151.384 122.309H244.536C245.641 122.309 246.536 121.413 246.536 120.309V116.972C246.536 115.867 245.641 114.972 244.536 114.972H143.288Z" fill="url(#paint0_linear_3_24)"/>
<defs>
<linearGradient id="paint0_linear_3_24" x1="283.077" y1="-23.377" x2="282.928" y2="432.061" gradientUnits="userSpaceOnUse">
<stop stop-color="#60a5fa"/>
<stop offset="1" stop-color="#1d4ed8"/>
</linearGradient>
</defs>
</svg>
