<svg width="462" height="305" viewBox="0 0 462 305" fill="none" xmlns="http://www.w3.org/2000/svg">
<path d="M105.499 68.6979C141.602 -33.8668 261.644 -3.64853 282.206 43.9997C282.43 44.5189 283.033 44.7519 283.552 44.529C325.691 26.4584 372.787 42.5219 387.451 95.7959C387.538 96.1121 387.787 96.3779 388.096 96.4891C506.994 139.378 469.885 304.957 365.497 304.957H79.6147C14.3055 307.335 -38.62 209.706 37.5139 149.1C37.7854 148.884 37.9356 148.522 37.8971 148.177C30.8464 84.9488 78.7357 67.7482 104.479 69.3933C104.933 69.4224 105.348 69.1278 105.499 68.6979Z" fill="white"/>
<g filter="url(#filter0_ii_3_24)">
<path fill-rule="evenodd" clip-rule="evenodd" d="M105.763 67.9531C141.944 -33.0476 260.119 -3.92607 281.787 43.0596C282.26 44.0868 283.463 44.5603 284.507 44.126C326.266 26.7594 372.598 42.8199 387.309 95.2861C387.486 95.9176 387.983 96.4471 388.599 96.6719C506.889 139.846 469.737 304.957 365.496 304.957H79.6146C14.4331 307.33 -38.4129 210.088 37.0687 149.456C37.6099 149.021 37.9091 148.302 37.8354 147.611C31.1992 85.4702 77.8698 68.0972 103.706 69.3496C104.617 69.3938 105.456 68.8109 105.763 67.9531ZM359.812 112.442C343.957 112.442 329.621 116.321 316.802 124.08C303.984 131.839 293.863 142.38 286.442 155.705C279.021 169.03 275.31 183.873 275.31 200.233C275.31 216.594 279.021 231.521 286.442 245.014C294.032 258.507 304.321 269.133 317.308 276.892C330.464 284.65 345.054 288.53 361.078 288.53C373.39 288.53 384.859 286.169 395.485 281.446C405.529 276.982 414.292 270.785 421.774 262.855C422.504 262.081 422.472 260.869 421.719 260.116L418.757 257.154C417.939 256.335 416.599 256.382 415.812 257.232C409.174 264.396 401.218 270.022 391.943 274.109C382.16 278.495 371.618 280.687 360.318 280.687C345.981 280.686 332.994 277.144 321.356 270.061C309.718 262.977 300.525 253.363 293.779 241.219C287.201 228.906 283.913 215.244 283.913 200.233C283.913 185.391 287.201 171.897 293.779 159.753C300.525 147.44 309.634 137.826 321.103 130.911C332.741 123.827 345.644 120.285 359.812 120.285C370.944 120.285 381.317 122.478 390.931 126.863C400.048 130.95 407.919 136.502 414.546 143.518C415.335 144.354 416.663 144.394 417.476 143.581L420.441 140.616C421.199 139.858 421.226 138.635 420.482 137.863C412.997 130.097 404.158 123.985 393.967 119.526C383.341 114.804 371.956 112.442 359.812 112.442ZM148.288 114.972C147.184 114.972 146.288 115.867 146.288 116.972V284C146.288 285.105 147.184 286 148.288 286H152.384C153.489 286 154.384 285.105 154.384 284V206.787C154.384 205.683 155.28 204.787 156.384 204.787H245.235C246.339 204.787 247.235 203.892 247.235 202.787V199.45C247.235 198.346 246.339 197.45 245.235 197.45H156.384C155.28 197.45 154.384 196.555 154.384 195.45V124.309C154.384 123.204 155.28 122.309 156.384 122.309H249.537C250.641 122.309 251.537 121.413 251.537 120.309V116.972C251.537 115.867 250.641 114.972 249.537 114.972H148.288Z" fill="url(#paint0_linear_3_24)"/>
</g>
<defs>
<filter id="filter0_ii_3_24" x="9.15527e-05" y="-10.7998" width="462" height="332" filterUnits="userSpaceOnUse" color-interpolation-filters="sRGB">
<feFlood flood-opacity="0" result="BackgroundImageFix"/>
<feBlend mode="normal" in="SourceGraphic" in2="BackgroundImageFix" result="shape"/>
<feColorMatrix in="SourceAlpha" type="matrix" values="0 0 0 0 0 0 0 0 0 0 0 0 0 0 0 0 0 0 127 0" result="hardAlpha"/>
<feOffset dy="16.2"/>
<feGaussianBlur stdDeviation="8.1"/>
<feComposite in2="hardAlpha" operator="arithmetic" k2="-1" k3="1"/>
<feColorMatrix type="matrix" values="0 0 0 0 1 0 0 0 0 1 0 0 0 0 1 0 0 0 0.3 0"/>
<feBlend mode="normal" in2="shape" result="effect1_innerShadow_3_24"/>
<feColorMatrix in="SourceAlpha" type="matrix" values="0 0 0 0 0 0 0 0 0 0 0 0 0 0 0 0 0 0 127 0" result="hardAlpha"/>
<feOffset dy="-10.8"/>
<feGaussianBlur stdDeviation="8.1"/>
<feComposite in2="hardAlpha" operator="arithmetic" k2="-1" k3="1"/>
<feColorMatrix type="matrix" values="0 0 0 0 0 0 0 0 0 0 0 0 0 0 0 0 0 0 0.25 0"/>
<feBlend mode="normal" in2="effect1_innerShadow_3_24" result="effect2_innerShadow_3_24"/>
</filter>
<linearGradient id="paint0_linear_3_24" x1="283.077" y1="-22.9997" x2="282.933" y2="425.092" gradientUnits="userSpaceOnUse">
<stop stop-color="#2B7FFF"/>
<stop offset="1" stop-color="#0900FF"/>
</linearGradient>
</defs>
</svg>
